<svg width="83" height="88" viewBox="0 0 83 88" fill="none" xmlns="http://www.w3.org/2000/svg">
<g clip-path="url(#clip0_31_268)">
<path d="M0.748917 45.2041C1.17572 44.2792 2.30128 43.8623 3.26291 44.2727C4.2245 44.6832 4.65807 45.7656 4.2313 46.6905C3.98935 47.2148 3.93601 47.6014 4.00408 47.9665C4.13062 48.1185 4.25092 48.2338 4.4072 48.3529C4.50546 48.3745 4.64744 48.4043 4.8418 48.4415C5.24189 48.518 5.74407 48.605 6.28994 48.6971C7.35073 48.8761 8.60448 49.0786 9.38176 49.2349C10.4116 49.442 11.0719 50.4128 10.8566 51.4032C10.6412 52.3936 9.6318 53.0286 8.60201 52.8215C7.9051 52.6813 6.75898 52.4964 5.63157 52.3062C5.08334 52.2137 4.54428 52.1206 4.09826 52.0352C3.71286 51.9615 3.22835 51.8636 2.90174 51.7471C2.75418 51.6944 2.61397 51.6243 2.48433 51.5385C1.71167 51.0269 1.21379 50.5393 0.691316 49.8189C0.582066 49.6683 0.497027 49.5026 0.43898 49.3277C-0.0436016 47.8729 0.148864 46.5044 0.748917 45.2041Z" fill="#B80000"/>
<path d="M29.1494 78.7008C30.2304 78.7008 31.1067 79.5273 31.1068 80.5469C31.107 83.8743 31.1274 85.9106 31.1646 86.7123C31.2119 87.731 30.3747 88.5929 29.2947 88.6375C28.2147 88.6821 27.3009 87.8925 27.2536 86.8739C27.2118 85.9738 27.1924 83.846 27.1921 80.5471C27.1921 79.5275 28.0684 78.7009 29.1494 78.7008Z" fill="#B80000"/>
<path d="M26.4998 68.7826L26.5484 68.7836C26.6619 68.7873 26.7748 68.8011 26.8857 68.8245C27.9127 69.0415 28.7118 69.3593 29.5642 69.9949L29.6469 70.0574L29.6939 70.0946C29.8023 70.1834 29.9003 70.2837 29.9859 70.3938C30.6146 71.2025 30.9771 72.0951 31.1353 72.9407C31.3233 73.9457 30.6409 74.9091 29.611 75.0926C28.5812 75.2761 27.5938 74.61 27.4058 73.6051C27.3574 73.3462 27.2579 73.0746 27.0972 72.8183C26.8614 72.6642 26.6301 72.5687 26.2611 72.4802L23.9057 72.4617C22.8588 72.4535 22.017 71.6187 22.0255 70.5971C22.0339 69.5756 22.8894 68.7541 23.9363 68.7624L26.4998 68.7826Z" fill="#B80000"/>
<path d="M59.0355 78.7008C60.1053 78.7001 60.9732 79.5287 60.974 80.5516C60.9763 83.7251 60.9439 85.8699 60.8695 86.9131C60.7968 87.9336 59.8725 88.7045 58.8052 88.635C57.7378 88.5654 56.9316 87.6816 57.0043 86.6611C57.0679 85.769 57.1022 83.7576 57.0998 80.5543C57.0991 79.5314 57.9657 78.7015 59.0355 78.7008Z" fill="#B80000"/>
<path d="M59.4483 52.3431C59.8999 51.3916 61.0098 51 61.9271 51.4684C62.8445 51.9367 63.2221 53.0878 62.7705 54.0393L61.8901 55.8943C61.2232 57.8896 60.9081 59.4406 60.6951 61.8493C60.6017 62.9054 59.7005 63.683 58.6822 63.5861C57.664 63.4893 56.9142 62.5546 57.0076 61.4985C57.2493 58.7654 57.6297 56.8906 58.4312 54.5179L58.4504 54.4636C58.4704 54.4096 58.4928 54.3566 58.5174 54.3047L59.4483 52.3431Z" fill="#B80000"/>
<path d="M72.706 44.5517C73.6561 44.4562 74.3886 44.5238 75.6256 44.8731L75.7469 44.9078L75.8055 44.9259C75.9416 44.9701 76.0722 45.0296 76.1949 45.1034C76.9411 45.5521 77.4825 46.0161 77.9592 46.5342L78.0537 46.6386L78.0819 46.6709C78.1468 46.7471 78.2055 46.8284 78.2576 46.9139C78.7635 47.7449 79.1165 48.7427 79.2347 49.52C79.2514 49.6298 79.2583 49.7409 79.2555 49.852C79.2305 50.8502 79.0209 51.8236 78.6344 52.6531C78.5905 52.7474 78.5388 52.8379 78.48 52.9237C77.9406 53.7104 77.336 54.3322 76.5407 54.8595C76.4449 54.9231 76.3434 54.9777 76.2376 55.0228C75.2798 55.4309 74.3737 55.6386 73.31 55.6435C73.1869 55.644 73.064 55.6325 72.9431 55.6091C72.0284 55.4322 70.9153 54.9426 70.2757 54.5075C70.1689 54.4349 70.0698 54.3514 69.98 54.2585C69.2593 53.513 68.7525 52.732 68.4266 52.0124C68.3716 51.8909 68.3295 51.7638 68.3012 51.6334C68.0783 50.6059 68.0735 49.5619 68.2693 48.5373C68.316 48.2931 68.4079 48.069 68.5343 47.8717C68.5301 47.2939 68.7896 46.7214 69.2861 46.3469C70.6721 45.3014 71.5185 44.8615 72.3731 44.6157L72.4141 44.6044C72.5098 44.5792 72.6074 44.5616 72.706 44.5517ZM74.4494 48.4701C73.8203 48.2999 73.5437 48.2794 73.267 48.2974C73.0487 48.3772 72.6909 48.551 72.0069 49.0375C72.0014 49.1072 71.9923 49.1774 71.9788 49.2477C71.8887 49.7191 71.8813 50.1803 71.9538 50.629C72.0845 50.876 72.2756 51.1647 72.5432 51.4666C72.6479 51.5237 72.7938 51.5959 72.9702 51.6701C73.168 51.7533 73.3505 51.8163 73.4955 51.8571C73.8695 51.8373 74.2007 51.7641 74.592 51.6119C74.8387 51.4303 75.0485 51.2205 75.2673 50.9233C75.3646 50.6714 75.4439 50.3373 75.471 49.9429C75.4457 49.8379 75.4061 49.7024 75.3487 49.547C75.2817 49.3653 75.2012 49.1856 75.1144 49.0245C74.9255 48.8273 74.722 48.6513 74.4494 48.4701Z" fill="#B80000"/>
<path d="M76.6506 27.4529C77.6277 27.3579 78.6103 27.4561 79.5956 27.762L79.6909 27.7922L79.7443 27.8104C79.8681 27.8547 79.9869 27.9119 80.0988 27.981C81.0464 28.5669 81.5785 29.0388 82.2588 29.9091L82.325 29.9946L82.3507 30.0286C82.4096 30.1088 82.4619 30.1936 82.5073 30.2821C82.826 30.9037 83.1322 31.9166 83.223 32.9122C83.2353 33.0464 83.2329 33.1816 83.216 33.3153C83.0878 34.3297 82.726 35.3712 82.3497 36.0117C82.2909 36.1118 82.2228 36.2063 82.1464 36.2938C81.4072 37.1405 80.8763 37.582 80.263 37.9473C80.1679 38.004 80.0679 38.0522 79.9642 38.0912C78.8531 38.5094 77.3495 38.6585 76.2356 38.4665C76.1359 38.4493 76.0377 38.4241 75.9421 38.3911C75.3435 38.1844 74.7928 37.9002 73.9491 37.3043C73.8309 37.2208 73.7227 37.1239 73.6269 37.0156C73.2638 36.6049 72.9547 36.2107 72.6529 35.6446C72.3778 35.1286 72.1299 34.5079 71.8222 33.679C71.5972 33.0729 71.7073 32.4246 72.0592 31.9367C72.064 31.7184 72.1074 31.4972 72.1937 31.2825C72.5065 30.5043 73.1413 29.4994 73.641 28.9741L73.6691 28.9452C73.7354 28.8785 73.8065 28.8168 73.8821 28.7608C74.7523 28.1156 75.3146 27.8254 76.2785 27.5276L76.3241 27.5142C76.4309 27.4842 76.5401 27.4636 76.6506 27.4529ZM78.3294 31.2856C77.9348 31.1794 77.5597 31.1414 77.1921 31.1592C76.8496 31.2734 76.6507 31.3743 76.2797 31.6401C76.2667 31.657 76.2526 31.6756 76.2375 31.6961C76.1714 31.7857 76.0958 31.8964 76.0187 32.0191C75.8563 32.2775 75.7301 32.5201 75.6683 32.6738C75.632 32.7642 75.5893 32.8502 75.5412 32.9315C75.7256 33.4065 75.8496 33.6862 75.9578 33.8892C76.0509 34.0637 76.1389 34.1948 76.2938 34.3802C76.5282 34.5398 76.6937 34.6395 76.8164 34.7057C76.8918 34.7463 76.9557 34.7768 77.0157 34.8022C77.4201 34.8382 78.0344 34.7824 78.4889 34.6464C78.5561 34.6002 78.6239 34.5481 78.701 34.4812C78.818 34.3797 78.9708 34.2314 79.1805 33.9999C79.2184 33.9157 79.2676 33.7942 79.3186 33.639C79.3808 33.4499 79.4337 33.2466 79.4703 33.0482C79.4414 32.8512 79.3976 32.6505 79.3454 32.4645C79.3026 32.3118 79.2604 32.1913 79.2275 32.1072C78.92 31.7228 78.7183 31.5387 78.3294 31.2856Z" fill="#B80000"/>
<path d="M51.9171 40.6693C52.4456 39.7708 53.5972 39.4739 54.4893 40.0062C55.3813 40.5385 55.676 41.6984 55.1475 42.5969C54.6648 43.4177 53.9433 44.2673 53.1856 44.8098C53.1003 44.8709 53.0101 44.9247 52.916 44.9706C51.8497 45.4907 50.2172 45.6972 47.3565 45.7049C46.3197 45.7077 45.4769 44.8634 45.4741 43.819C45.4713 42.7747 46.3096 41.9257 47.3465 41.9229C49.8291 41.9162 50.7896 41.7338 51.1445 41.619C51.3839 41.4087 51.6908 41.0541 51.9171 40.6693Z" fill="#B80000"/>
<path d="M29.7996 36.5616C30.8063 36.5557 31.6271 37.3819 31.6328 38.4069C31.6377 39.2841 31.6617 39.8858 31.6951 40.253C31.881 40.8309 32.1104 41.2527 32.2901 41.5088C32.6292 41.7363 33.0839 41.92 33.6409 42.0221C34.6317 42.2039 35.2902 43.169 35.1117 44.1777C34.9332 45.1865 33.9853 45.857 32.9945 45.6753C31.904 45.4753 30.8078 45.0509 29.891 44.3209C29.7952 44.2446 29.7071 44.1587 29.6281 44.0646C29.0501 43.3757 28.5103 42.3717 28.1556 41.1652C28.1263 41.0657 28.1053 40.9639 28.0928 40.8608C28.0231 40.2864 27.9928 39.4544 27.9871 38.428C27.9814 37.403 28.7929 36.5674 29.7996 36.5616Z" fill="#B80000"/>
<path d="M34.8467 17.8771C35.8788 17.8687 36.7223 18.7148 36.7306 19.767C36.7389 20.8192 35.909 21.6791 34.8769 21.6876C33.9946 21.6948 33.4612 21.7181 33.1991 21.7423C32.8432 21.8629 32.5577 22.0177 32.2262 22.2955C31.9273 22.8157 31.778 23.282 31.7062 23.7945C31.5601 24.8361 30.6134 25.5598 29.5916 25.4109C28.5699 25.262 27.8601 24.2969 28.0061 23.2553C28.1671 22.1073 28.5485 21.0654 29.218 20.011L29.2519 19.9595C29.3327 19.8408 29.4267 19.7318 29.5318 19.6347C30.3954 18.8367 31.2327 18.3594 32.2762 18.0442L32.3404 18.0261C32.405 18.0092 32.4705 17.9957 32.5365 17.9858C33.0243 17.9131 33.8382 17.8854 34.8467 17.8771Z" fill="#B80000"/>
<path d="M69.4034 16.7422C70.1831 16.0694 71.3642 16.1517 72.0416 16.9262C72.7189 17.7007 72.636 18.874 71.8564 19.5469C68.2184 22.6867 66.1612 24.427 64.909 25.4051C63.6794 26.3655 63.0035 26.7789 62.1702 26.9719C62.0298 27.0045 61.8861 27.0207 61.742 27.0205L54.0972 27.0062C53.0644 27.0043 52.2288 26.171 52.2307 25.145C52.2327 24.1191 53.0714 23.289 54.1042 23.2909L61.4394 23.3046C61.4571 23.2951 61.4777 23.2838 61.5014 23.27C61.6899 23.1604 62.0116 22.9419 62.5973 22.4845C63.7633 21.5737 65.7475 19.8976 69.4034 16.7422Z" fill="#B80000"/>
<path d="M54.0621 38.9469C57.5182 38.9449 59.4076 38.9608 60.4941 39.0069C61.5708 39.0526 62.1097 39.1302 62.6899 39.3994C63.6092 39.8258 64.0112 40.9222 63.5879 41.8482C63.1674 42.7678 62.091 43.1734 61.1758 42.7611C61.1728 42.7605 61.1696 42.7598 61.166 42.7592C61.0658 42.7421 60.8413 42.7167 60.34 42.6955C59.347 42.6533 57.541 42.6366 54.0642 42.6387C53.0522 42.6393 52.2313 41.8133 52.2307 40.7939C52.2301 39.7744 53.0501 38.9475 54.0621 38.9469Z" fill="#B80000"/>
<path d="M36.9345 0.408578C39.1456 0.340376 41.4725 0.417776 44.1465 0.693371L44.4063 0.72061L44.471 0.728701C44.4925 0.731755 44.5139 0.735151 44.5352 0.738949C46.949 1.16837 49.5469 1.81325 51.8952 2.59307C51.9446 2.6095 51.9934 2.62797 52.0413 2.64845C53.8737 3.43176 55.6257 4.36229 57.2593 5.40667L57.417 5.50807L57.4746 5.54682C57.4935 5.56008 57.5122 5.57368 57.5306 5.58763C58.7218 6.48941 60.0474 7.5637 61.5054 8.80675C62.2953 9.48025 62.3909 10.6679 61.7188 11.4595C61.0468 12.2512 59.8615 12.347 59.0716 11.6735C57.6766 10.4841 56.4273 9.47179 55.3219 8.6328C53.8589 7.69111 52.2859 6.85009 50.64 6.14167C48.5142 5.44018 46.1472 4.85167 43.9425 4.45628C41.3711 4.18388 39.1746 4.10791 37.1099 4.16888C34.3738 4.43169 32.3295 4.77987 30.1516 5.31129C27.9677 6.03318 26.0482 6.82984 24.2107 7.74786C22.5833 8.7211 20.9518 9.86093 19.3686 11.1549C17.9465 12.5515 16.716 13.9755 15.5446 15.5723C14.5812 17.1485 13.7091 18.8299 12.9354 20.6429C12.2803 22.6104 11.7867 24.5637 11.5093 26.1209C11.433 26.8534 11.3734 28.2424 11.3074 29.753C11.2432 31.2215 11.1722 32.8253 11.0623 33.7174C10.9352 34.7489 9.99771 35.4818 8.96838 35.3545C7.93905 35.2271 7.20759 34.2877 7.33465 33.2562C7.42157 32.5507 7.48752 31.1365 7.55515 29.5883C7.61924 28.1212 7.68512 26.5274 7.78202 25.651L7.78955 25.5914C7.79238 25.5716 7.79551 25.5519 7.79897 25.5322C8.11346 23.741 8.66974 21.5504 9.39816 19.375L9.41018 19.3402C9.42261 19.3053 9.43609 19.2708 9.45055 19.2368C10.3153 17.2005 11.2963 15.309 12.3855 13.5352L12.4056 13.5031C12.426 13.4713 12.4474 13.4401 12.4697 13.4096C13.7917 11.6003 15.1886 9.98332 16.8035 8.4041C16.8425 8.36597 16.8832 8.32956 16.9253 8.29497C18.6915 6.84566 20.5187 5.56829 22.3496 4.47776L22.4085 4.44405C22.4283 4.43319 22.4484 4.42273 22.4686 4.41259C24.513 3.3872 26.6423 2.50415 29.0484 1.71253L29.0828 1.70157C29.1174 1.69093 29.1522 1.68133 29.1873 1.67271C31.6014 1.0801 33.8552 0.698007 36.8147 0.416129L36.8745 0.411455C36.8945 0.410195 36.9145 0.409196 36.9345 0.408578Z" fill="#B80000"/>
<path d="M9.77633 60.0252C10.7872 59.9264 11.6863 60.6699 11.7846 61.6859L12.0153 64.0713C12.2373 65.1043 12.6398 66.1021 12.8568 66.5144C13.2782 67.0651 13.7483 67.5188 14.1334 67.8216C15.0475 68.2585 16.1465 68.5467 17.5379 68.6484C18.5508 68.7225 19.3122 69.6078 19.2385 70.6259C19.1648 71.644 18.2839 72.4092 17.271 72.3352C15.4174 72.1996 13.7888 71.7874 12.3379 71.0538C12.2459 71.0074 12.158 70.9532 12.0751 70.8919C11.3636 70.3663 10.5437 69.5835 9.83862 68.6316C9.79788 68.5766 9.76024 68.5194 9.72582 68.4602C9.28744 67.7059 8.69451 66.1986 8.3935 64.7239C8.38051 64.6602 8.37085 64.5959 8.3646 64.5312L8.12399 62.0436C8.02573 61.0277 8.7655 60.1239 9.77633 60.0252Z" fill="#B80000"/>
<path d="M48.2707 19.5294C48.398 18.4975 49.338 17.7642 50.3702 17.8914C51.7536 18.0619 52.7606 18.4504 53.8455 19.1836L53.9508 19.2557L53.9804 19.2766C54.1276 19.3829 54.2588 19.51 54.3697 19.6539C55.0303 20.5109 55.4996 21.4636 55.7214 22.4992L55.7421 22.5997L55.7501 22.6428C55.7676 22.7436 55.7769 22.8456 55.7778 22.948L55.8076 26.314C55.8167 27.3537 54.9811 28.2038 53.9411 28.2131C52.9011 28.2223 52.0505 27.3869 52.0413 26.3473L52.0133 23.1813C51.931 22.8609 51.7843 22.528 51.5529 22.1832C51.0382 21.8608 50.6066 21.7141 49.9093 21.6282C48.877 21.5009 48.1434 20.5613 48.2707 19.5294Z" fill="#B80000"/>
<path d="M58.7061 85.0615C59.7386 85.0609 60.5761 85.8571 60.5768 86.8399C60.5774 87.8228 59.741 88.62 58.7085 88.6207L29.0628 88.6394C28.0303 88.64 27.1928 87.8438 27.1921 86.8609C27.1915 85.8781 28.0278 85.0808 29.0603 85.0801L58.7061 85.0615Z" fill="#B80000"/>
<path d="M29.167 71.545C30.26 71.5429 31.148 72.3683 31.1503 73.3887L31.1665 80.4271C31.1688 81.4475 30.2847 82.2765 29.1917 82.2786C28.0986 82.2808 27.2107 81.4554 27.2083 80.435L27.1921 73.3966C27.1898 72.3762 28.0739 71.5472 29.167 71.545Z" fill="#B80000"/>
<path d="M75.502 15.8893C75.502 14.8894 74.6916 14.0788 73.692 14.0788C72.6924 14.0788 71.882 14.8894 71.882 15.8893C71.882 16.8892 72.6924 17.6998 73.692 17.6998C74.6917 17.6998 75.502 16.8892 75.502 15.8893ZM79.2561 15.8893C79.2561 18.9631 76.765 21.4549 73.692 21.4549C70.619 21.4549 68.1279 18.9631 68.1279 15.8893C68.1279 12.8155 70.619 10.3237 73.692 10.3237C76.765 10.3237 79.2561 12.8155 79.2561 15.8893Z" fill="#B80000"/>
<path d="M23.7613 68.7686C24.7792 68.7697 25.6034 69.57 25.6024 70.5563C25.6013 71.5425 24.7753 72.3412 23.7574 72.3402L17.5076 72.3338C16.4897 72.3328 15.6654 71.5324 15.6665 70.5462C15.6676 69.5599 16.4936 68.7613 17.5115 68.7623L23.7613 68.7686Z" fill="#B80000"/>
<path d="M58.9969 59.6189C60.0898 59.6198 60.975 60.4597 60.9741 61.4949L60.9575 80.4058C60.9566 81.441 60.0699 82.2796 58.977 82.2787C57.8841 82.2779 56.9988 81.4379 56.9998 80.4026L57.0164 61.4919C57.0173 60.4566 57.904 59.618 58.9969 59.6189Z" fill="#B80000"/>
<path d="M73.8107 31.3934C74.8402 31.3911 75.6769 32.1798 75.6794 33.1552C75.6819 34.1306 74.8493 34.9233 73.8198 34.9257L54.0993 34.9713C53.0698 34.9737 52.2332 34.1849 52.2307 33.2095C52.2282 32.2341 53.0607 31.4414 54.0902 31.439L73.8107 31.3934Z" fill="#B80000"/>
<path d="M68.8776 47.4697C69.1536 46.4731 70.1727 45.8925 71.1538 46.173C72.1348 46.4535 72.7064 47.4888 72.4303 48.4854L72.1477 49.5057C71.8716 50.5023 70.8524 51.0828 69.8714 50.8023C68.8903 50.5219 68.3188 49.4866 68.5949 48.49L68.8776 47.4697Z" fill="#B80000"/>
<path d="M72.1645 31.4886C72.5174 30.5 73.6557 29.9677 74.7071 30.2994C75.7585 30.6312 76.3248 31.7015 75.972 32.6901L75.6173 33.6834C75.2645 34.672 74.1261 35.2044 73.0747 34.8727C72.0233 34.5409 71.4571 33.4706 71.81 32.482L72.1645 31.4886Z" fill="#B80000"/>
<path d="M52.3615 40.0949C52.767 39.1179 53.8319 38.6794 54.7403 39.1155C55.6486 39.5516 56.0562 40.6971 55.6508 41.6741L55.2793 42.5692C54.8739 43.5462 53.8089 43.9847 52.9006 43.5486C51.9923 43.1124 51.5847 41.9669 51.9901 40.9899L52.3615 40.0949Z" fill="#B80000"/>
<path d="M47.5728 42.1431C48.61 42.1442 49.4498 42.9425 49.4486 43.9261C49.4473 44.9097 48.6055 45.7061 47.5683 45.7049L33.4397 45.6889C32.4025 45.6878 31.5627 44.8895 31.564 43.9059C31.5652 42.9223 32.407 42.1259 33.4442 42.1271L47.5728 42.1431Z" fill="#B80000"/>
<path d="M7.70893 32.3762C8.21126 31.4648 9.36947 31.1266 10.2958 31.6208C11.2222 32.115 11.566 33.2545 11.0636 34.1659L4.14977 46.7099C3.64744 47.6212 2.48923 47.9595 1.56286 47.4653C0.636504 46.9711 0.292738 45.8316 0.795048 44.9202L7.70893 32.3762Z" fill="#B80000"/>
<path d="M29.7787 21.455C30.765 21.4553 31.5643 22.2896 31.564 23.3183L31.5588 38.2774C31.5584 39.3062 30.7585 40.1398 29.7722 40.1394C28.7859 40.139 27.9867 39.3047 27.9871 38.276L27.9922 23.3169C27.9926 22.2882 28.7924 21.4546 29.7787 21.455Z" fill="#B80000"/>
<path d="M50.3292 17.8853C51.38 17.8858 52.2313 18.6854 52.2307 19.6712C52.2301 20.6569 51.3778 21.4555 50.327 21.4549L34.6579 21.4467C33.6071 21.4461 32.7558 20.6466 32.7563 19.6609C32.757 18.6751 33.6093 17.8765 34.6601 17.8771L50.3292 17.8853Z" fill="#B80000"/>
<path d="M8.5973 49.2919C9.61783 49.1917 10.5269 49.9328 10.6277 50.9471L11.683 61.5672C11.7837 62.5816 11.0382 63.485 10.0176 63.5852C8.99709 63.6854 8.08802 62.9444 7.98723 61.93L6.93198 51.31C6.83119 50.2957 7.57678 49.3921 8.5973 49.2919Z" fill="#B80000"/>
<path d="M60.5815 40.0428C61.2213 39.2466 62.3966 39.1109 63.2067 39.7397L71.789 46.4017C72.5991 47.0305 72.7371 48.1857 72.0974 48.9818C71.4576 49.778 70.2823 49.9136 69.4723 49.2848L60.8899 42.6229C60.0799 41.9941 59.9418 40.8389 60.5815 40.0428Z" fill="#B80000"/>
<path d="M53.9977 24.2377C54.976 24.2351 55.7711 25.0848 55.7735 26.1356L55.8076 41.0148C55.81 42.0656 55.0189 42.9195 54.0405 42.9221C53.0622 42.9247 52.2672 42.0749 52.2648 41.0241L52.2307 26.145C52.2283 25.0942 53.0194 24.2403 53.9977 24.2377Z" fill="#B80000"/>
</g>
<defs>
<clipPath id="clip0_31_268">
<rect width="83" height="88" fill="white"/>
</clipPath>
</defs>
</svg>
