<svg width="76" height="91" viewBox="0 0 76 91" fill="none" xmlns="http://www.w3.org/2000/svg">
<path d="M48.397 73.0102C49.1287 72.3087 50.2884 72.3353 50.9874 73.0695C51.6864 73.8038 51.6599 74.9677 50.9282 75.6692C50.2422 76.3269 49.9492 76.7067 49.7528 77.0591C49.6862 77.3631 49.6632 77.6569 49.6801 77.9531C49.7416 78.1016 49.8191 78.2581 49.9051 78.4078C49.9767 78.5322 50.0414 78.6299 50.0903 78.6983C50.4247 78.9399 50.7439 79.0908 51.0446 79.1796C51.4146 79.1757 51.9855 79.0968 54.1493 78.6172C55.1374 78.3982 56.1152 79.0245 56.3334 80.0161C56.5516 81.0077 55.9275 81.989 54.9394 82.208C52.481 82.7528 51.6769 82.8862 50.7308 82.8518C50.6158 82.8476 50.5014 82.8325 50.3892 82.8068C49.4345 82.588 48.518 82.1447 47.6673 81.4692C47.5847 81.4036 47.5079 81.331 47.4378 81.2521C46.9818 80.7397 46.4428 79.8485 46.1414 78.9521C46.1004 78.8302 46.0722 78.7043 46.0574 78.5765C45.9538 77.6819 46.0214 76.8 46.2595 75.9197L46.2718 75.8761C46.3019 75.7748 46.3407 75.6763 46.3877 75.5816C46.8444 74.6614 47.4311 73.9363 48.397 73.0102Z" fill="#B80000"/>
<path d="M68.4119 64.729C68.7754 63.7839 69.8292 63.3151 70.7656 63.6821C71.7021 64.049 72.1665 65.1126 71.803 66.0578C71.4107 67.0779 70.879 67.929 70.0969 68.7467C70.0128 68.8347 69.9201 68.9139 69.8204 68.9832C69.1282 69.4648 68.281 69.8469 67.5483 70.0359C67.4184 70.0695 67.2851 70.0884 67.1511 70.0923L65.317 70.1464C64.3129 70.176 63.4752 69.3784 63.4459 68.365C63.4165 67.3515 64.2067 66.5059 65.2108 66.4763L66.8129 66.429C67.059 66.3467 67.3532 66.2129 67.6098 66.0554C67.9767 65.6435 68.215 65.241 68.4119 64.729Z" fill="#B80000"/>
<path d="M15.3107 28.0305C16.1587 27.535 17.2575 27.8047 17.7649 28.6329C19.0537 30.7367 19.6311 31.3772 20.0516 31.7517C20.6735 32.1388 21.4068 32.4708 22.2599 32.7106C23.1131 32.7986 23.833 32.7663 24.5346 32.6409C25.3885 32.3107 26.0558 31.9282 26.653 31.4868C27.2177 30.8966 27.6326 30.3459 28.5605 28.8726C29.0783 28.0505 30.1804 27.7941 31.0221 28.2997C31.8639 28.8053 32.1266 29.8816 31.6088 30.7037C30.58 32.3372 30.0191 33.1043 29.1516 33.9935C29.0907 34.0559 29.0252 34.1138 28.9556 34.1668C28.0279 34.8723 26.9833 35.4719 25.6679 35.9603C25.5764 35.9943 25.4822 36.0209 25.3862 36.0398C24.2162 36.2706 23.0379 36.3211 21.7058 36.1668C21.6179 36.1567 21.5308 36.1401 21.4453 36.1173C20.1322 35.7673 18.9743 35.2464 17.9771 34.6034C17.9098 34.56 17.8456 34.5122 17.7849 34.4604C16.9347 33.7341 16.1427 32.7925 14.6938 30.4273C14.1864 29.5991 14.4626 28.526 15.3107 28.0305Z" fill="#B80000"/>
<path d="M43.1127 28.5868C43.6567 27.7755 44.7874 27.5385 45.6381 28.0572C46.4888 28.576 46.7374 29.6542 46.1934 30.4654C44.577 32.8756 43.8987 33.6574 43.0725 34.3714C43.0083 34.4269 42.9399 34.478 42.8681 34.5243C41.6891 35.2838 40.4962 35.8136 39.2927 36.1371C39.1994 36.1622 39.1042 36.1802 39.0079 36.1908C37.7955 36.3253 36.2453 36.2459 35.0457 35.9867C34.9546 35.967 34.8653 35.9407 34.7784 35.908C33.5957 35.4628 32.4196 34.7948 31.2953 33.8965C31.2289 33.8435 31.1666 33.786 31.1087 33.7245C30.602 33.1859 29.84 32.1474 28.8742 30.7392C28.3215 29.9334 28.5585 28.8528 29.4036 28.3258C30.2487 27.7987 31.3819 28.0247 31.9346 28.8306C32.8445 30.1572 33.4373 30.9498 33.7526 31.3093C34.5151 31.9029 35.2713 32.3278 35.989 32.6133C36.7279 32.7548 37.702 32.8047 38.4435 32.7409C39.1675 32.5314 39.9233 32.1989 40.7123 31.7037C41.1397 31.3232 41.6458 30.7741 43.1127 28.5868Z" fill="#B80000"/>
<path d="M56.5235 20.8083C57.4628 20.4996 58.4653 21.0399 58.7626 22.0149C60.1109 26.4362 60.2949 28.0611 60.0601 29.6639C60.044 29.7736 60.0185 29.8816 59.9838 29.9866C59.4634 31.5602 58.9607 32.553 58.3784 33.3968C58.3358 33.4586 58.2895 33.5176 58.2399 33.5735C57.4934 34.4142 56.8466 34.9672 55.3556 35.9613C54.5266 36.514 53.4229 36.2645 52.8905 35.4041C52.358 34.5436 52.5984 33.3979 53.4273 32.8452C54.6883 32.0045 55.0978 31.6381 55.5393 31.1495C55.8472 30.6873 56.1718 30.072 56.554 28.9483C56.6351 28.265 56.5972 27.1859 55.3611 23.1324C55.0638 22.1574 55.5842 21.1169 56.5235 20.8083Z" fill="#B80000"/>
<path d="M48.3075 1.44795L48.3728 1.44969C48.438 1.45249 48.503 1.45856 48.5675 1.46786C49.5485 1.60918 50.6332 1.92268 51.7045 2.40082L51.8081 2.44759L51.8726 2.47844C51.9363 2.51046 51.998 2.546 52.0576 2.58484C53.0081 3.20479 53.8289 3.90994 54.5026 4.66199L54.5674 4.73492L54.6069 4.78142C54.6457 4.82857 54.6821 4.87759 54.7158 4.92824C55.2101 5.66988 55.6615 6.54179 55.9836 7.44661C56.0088 7.51743 56.0295 7.58969 56.0455 7.66297C56.2656 8.67192 56.3417 9.9548 56.3768 14.6521C56.3843 15.6571 55.5461 16.4777 54.5046 16.4849C53.4631 16.4922 52.6126 15.6833 52.6051 14.6784C52.5712 10.1362 52.4896 9.10182 52.3769 8.52109C52.1768 7.98682 51.9057 7.45805 51.6104 6.99913C51.1958 6.54371 50.6798 6.0933 50.064 5.67874C49.3618 5.37093 48.6894 5.17837 48.13 5.08583L45.5216 5.06114C44.4801 5.05126 43.6442 4.22858 43.6544 3.22365C43.6646 2.21872 44.5172 1.4121 45.5587 1.42196L48.3075 1.44795Z" fill="#B80000"/>
<path d="M13.0562 1.42308C14.0444 1.38662 14.8742 2.1803 14.9097 3.19579C14.9451 4.21126 14.1729 5.06403 13.1848 5.1005C12.3787 5.13024 11.8256 5.21249 11.0849 5.42832C10.6487 5.63961 10.1992 5.91537 9.75063 6.26133C9.32048 6.71199 8.94225 7.20422 8.65279 7.67308C8.45774 8.14877 8.1955 9.11499 8.12495 9.83785L8.12512 12.7621C8.12517 13.7782 7.32366 14.602 6.33489 14.6021C5.34612 14.6021 4.54456 13.7784 4.54448 12.7623L4.54431 9.75374C4.54431 9.70227 4.54636 9.65079 4.55055 9.5995C4.64831 8.40471 5.05838 6.88353 5.44486 6.03141L5.46684 5.98457C5.48951 5.93806 5.51413 5.89254 5.54056 5.84816C6.00994 5.06005 6.62003 4.26922 7.30607 3.56896L7.34644 3.52906C7.38738 3.48981 7.43011 3.4525 7.47447 3.41735C8.20194 2.84081 8.95964 2.37472 9.72438 2.02116L9.78057 1.99629C9.83714 1.97249 9.8949 1.95172 9.95358 1.93398C11.0624 1.59876 11.9286 1.46469 13.0562 1.42308Z" fill="#B80000"/>
<path d="M66.2225 72.5012C67.5466 72.489 68.8251 72.9831 69.796 73.8822C70.767 74.7813 71.3567 76.0173 71.4442 77.3367C71.5317 78.6561 71.1104 79.959 70.2667 80.9781C69.423 81.9972 68.2209 82.6554 66.9067 82.8177C65.5926 82.98 64.2662 82.6341 63.1993 81.8509C62.1324 81.0677 61.4059 79.9066 61.1689 78.6057C61.1325 78.4057 61.1309 78.2074 61.1597 78.017C61.106 77.8321 61.0814 77.6353 61.0911 77.4322C61.1542 76.1114 61.7209 74.8647 62.675 73.9479C63.6292 73.031 64.8984 72.5134 66.2225 72.5012ZM66.2556 76.0906C65.8495 76.0944 65.4601 76.2531 65.1674 76.5344C64.8748 76.8156 64.701 77.1981 64.6816 77.6032C64.6787 77.6648 64.6726 77.7256 64.6637 77.7853C64.6804 77.8433 64.6944 77.9026 64.7055 77.9632C64.7782 78.3623 65.001 78.7185 65.3283 78.9587C65.6555 79.199 66.0624 79.3051 66.4655 79.2553C66.8687 79.2055 67.2375 79.0036 67.4963 78.691C67.7551 78.3784 67.8843 77.9787 67.8575 77.574C67.8306 77.1692 67.6497 76.79 67.3519 76.5142C67.0541 76.2384 66.6618 76.0869 66.2556 76.0906Z" fill="#B80000"/>
<path d="M48.9929 72.8948C49.7694 72.5838 50.6109 72.454 51.4489 72.5161C52.2871 72.5781 53.0983 72.8302 53.8168 73.2518C54.5353 73.6734 55.1409 74.2528 55.5846 74.9429C56.0282 75.633 56.2973 76.4144 56.3702 77.2239C56.4552 78.1692 55.7313 79.0023 54.7533 79.0845C53.7752 79.1667 52.9133 78.467 52.8283 77.5216C52.8038 77.2501 52.7136 76.988 52.5648 76.7565C52.416 76.525 52.2128 76.3307 51.9718 76.1893C51.7308 76.0479 51.4588 75.9633 51.1776 75.9425C50.8965 75.9217 50.6142 75.9652 50.3537 76.0695C49.4468 76.4328 48.4069 76.0165 48.0311 75.1399C47.6553 74.2632 48.086 73.2581 48.9929 72.8948Z" fill="#B80000"/>
<path d="M52.86 77.4644C52.9499 76.4537 53.8083 75.7103 54.7774 75.804C55.7464 75.8977 56.4592 76.7931 56.3693 77.8038C56.3285 78.263 56.2829 78.5863 56.2222 78.8507C56.1939 78.9744 56.1652 79.0709 56.142 79.144C56.1405 79.1695 56.1388 79.2052 56.1372 79.2529C56.1301 79.472 56.1288 79.8472 56.1387 80.5199C56.1537 81.5349 55.377 82.3703 54.4039 82.3859C53.4308 82.4015 52.6298 81.5914 52.6149 80.5764C52.6049 79.8982 52.6046 79.4451 52.6149 79.1286C52.625 78.8178 52.647 78.5323 52.7212 78.2406C52.7521 78.1193 52.7932 77.9991 52.7939 77.9971C52.7943 77.9958 52.7947 77.9946 52.795 77.9937C52.7999 77.9719 52.8263 77.8436 52.86 77.4644Z" fill="#B80000"/>
<path d="M48.9059 70.6181C49.9059 70.6148 50.7192 71.4241 50.7224 72.4258C50.7257 73.4274 49.9177 74.242 48.9177 74.2453L6.36082 74.3838C5.36084 74.3871 4.54757 73.5776 4.54432 72.576C4.54109 71.5744 5.34909 70.7597 6.34906 70.7565L48.9059 70.6181Z" fill="#B80000"/>
<path d="M52.7924 79.9522C53.0659 78.9812 54.0745 78.4158 55.0453 78.6892C56.0161 78.9627 56.5815 79.9715 56.3081 80.9425C55.6765 83.1855 54.2072 85.0999 52.2042 86.29C50.2012 87.4801 47.8176 87.8548 45.5461 87.3366C44.5628 87.1123 43.9474 86.1331 44.1717 85.1495C44.396 84.166 45.375 83.5505 46.3583 83.7749C47.7163 84.0847 49.1414 83.8607 50.3389 83.1492C51.5365 82.4378 52.4148 81.2932 52.7924 79.9522Z" fill="#B80000"/>
<path d="M73.8579 49.911C74.8734 49.9112 75.6965 50.7532 75.6963 51.7918C75.6962 52.8304 74.8728 53.6722 73.8573 53.672L43.6079 53.6673C42.5925 53.6671 41.7694 52.8251 41.7695 51.7865C41.7697 50.7479 42.593 49.9061 43.6084 49.9063L73.8579 49.911Z" fill="#B80000"/>
<path d="M41.7105 43.3728C42.6714 43.1239 43.6476 43.7189 43.8909 44.7018L51.1383 73.9797C51.3817 74.9626 50.8 75.9612 49.8391 76.2101C48.8782 76.459 47.9021 75.8639 47.6588 74.881L40.4113 45.6032C40.168 44.6203 40.7497 43.6217 41.7105 43.3728Z" fill="#B80000"/>
<path d="M43.9524 27.4046C44.9001 27.0875 45.9223 27.6079 46.2357 28.5669C46.7172 30.041 47.7559 31.2623 49.1245 31.9638C50.4932 32.6653 52.0807 32.79 53.54 32.3107C54.4893 31.9989 55.5087 32.5249 55.8169 33.4856C56.125 34.4463 55.6052 35.478 54.6558 35.7898C52.2879 36.5675 49.712 36.365 47.4912 35.2267C45.2704 34.0884 43.5851 32.1068 42.8037 29.715C42.4905 28.756 43.0047 27.7216 43.9524 27.4046Z" fill="#B80000"/>
<path d="M54.2149 32.4896C55.1067 32.4851 55.833 33.3047 55.837 34.3203L55.9057 51.8249C55.9097 52.8405 55.19 53.6676 54.2981 53.6721C53.4063 53.6766 52.68 52.8569 52.676 51.8413L52.6073 34.3369C52.6033 33.3212 53.3231 32.4942 54.2149 32.4896Z" fill="#B80000"/>
<path d="M42.2658 43.3614C43.3005 43.369 44.1331 44.208 44.1255 45.2354C44.1178 46.2628 43.2728 47.0895 42.238 47.0819L36.0901 47.0367C35.0553 47.0291 34.2226 46.1901 34.2303 45.1627C34.2379 44.1353 35.083 43.3086 36.1178 43.3162L42.2658 43.3614Z" fill="#B80000"/>
<path d="M14.2476 28.5384C14.5755 27.5835 15.5999 27.0806 16.5358 27.4152C17.4716 27.7497 17.9645 28.7951 17.6366 29.7499C16.8198 32.1287 15.1292 34.0907 12.9217 35.2218C10.714 36.3529 8.16209 36.5647 5.80438 35.8124C4.85796 35.5104 4.33067 34.4828 4.62663 33.5171C4.92259 32.5514 5.92972 32.0134 6.87612 32.3154C8.34497 32.784 9.93484 32.6521 11.3102 31.9475C12.6855 31.2428 13.7388 30.0204 14.2476 28.5384Z" fill="#B80000"/>
<path d="M54.5512 12.7247C55.5596 12.7249 56.377 13.5667 56.3769 14.6051C56.3768 15.6434 55.5592 16.4851 54.5508 16.485L6.37005 16.4794C5.36162 16.4793 4.54421 15.6375 4.54431 14.5992C4.54442 13.5608 5.36197 12.7191 6.3704 12.7192L54.5512 12.7247Z" fill="#B80000"/>
<path d="M41.9659 12.7403C43.0008 12.5885 43.9677 13.2722 44.1256 14.2673L46.4597 28.9795C46.6176 29.9747 45.9066 30.9045 44.8717 31.0563C43.8368 31.2081 42.8699 30.5244 42.712 29.5293L40.3779 14.8171C40.22 13.822 40.931 12.8922 41.9659 12.7403Z" fill="#B80000"/>
<path d="M30.5764 12.7194C31.5659 12.7323 32.3578 13.5674 32.3453 14.5846L32.1591 29.7295C32.1465 30.7467 31.3343 31.5608 30.3448 31.548C29.3554 31.5351 28.5634 30.7001 28.576 29.6829L28.7623 14.538C28.7748 13.5207 29.587 12.7065 30.5764 12.7194Z" fill="#B80000"/>
<path d="M16.5738 14.2752C16.7169 13.2795 17.6168 12.5917 18.5835 12.7391C19.5503 12.8866 20.218 13.8134 20.0748 14.8091L17.9601 29.5215C17.817 30.5173 16.9172 31.2049 15.9504 31.0575C14.9836 30.9101 14.3159 29.9834 14.459 28.9876L16.5738 14.2752Z" fill="#B80000"/>
<path d="M62.5665 75.8415C63.5778 75.8472 64.393 76.6846 64.3874 77.7119C64.3818 78.7392 63.5576 79.5674 62.5463 79.5618L54.4283 79.5163C53.4171 79.5106 52.6018 78.6732 52.6073 77.6459C52.6129 76.6186 53.4372 75.7904 54.4484 75.796L62.5665 75.8415Z" fill="#B80000"/>
<path d="M62.5866 75.8248C63.5768 75.6496 64.5248 76.292 64.7041 77.2596L64.8292 77.9343C65.0085 78.902 64.3511 79.8285 63.361 80.0037C62.3708 80.1789 61.4228 79.5366 61.2434 78.5689L61.1185 77.8942C60.9392 76.9265 61.5965 76.0001 62.5866 75.8248Z" fill="#B80000"/>
<path d="M72.0671 51.2529C72.3408 50.2743 73.3598 49.7017 74.3432 49.974C75.3266 50.2464 75.9019 51.2606 75.6283 52.2392L71.7865 65.9763C71.5128 66.955 70.4937 67.5275 69.5103 67.2551C68.5269 66.9828 67.9516 65.9687 68.2252 64.9901L72.0671 51.2529Z" fill="#B80000"/>
<path d="M65.3597 66.3833C66.3843 66.3834 67.2147 67.2261 67.2146 68.2656C67.2145 69.305 66.3839 70.1475 65.3594 70.1474L47.8653 70.1456C46.8407 70.1455 46.0103 69.3028 46.0104 68.2634C46.0105 67.224 46.8411 66.3815 47.8656 66.3816L65.3597 66.3833Z" fill="#B80000"/>
<path d="M35.1892 7.07056C36.2184 7.06788 37.0549 7.9029 37.0575 8.93562C37.0602 9.96833 36.2281 10.8076 35.199 10.8103L25.2608 10.8363C24.2317 10.839 23.3953 10.004 23.3926 8.97126C23.3899 7.93854 24.222 7.09915 25.2512 7.09647L35.1892 7.07056Z" fill="#B80000"/>
<path d="M34.7592 76.7374C35.7674 76.7365 36.5855 77.577 36.5863 78.6147C36.5872 79.6523 35.7705 80.4942 34.7624 80.4951L25.6908 80.5032C24.6826 80.5041 23.8646 79.6636 23.8638 78.6259C23.8629 77.5882 24.6795 76.7463 25.6876 76.7454L34.7592 76.7374Z" fill="#B80000"/>
<path d="M45.6181 83.8063C46.6157 83.8066 47.4242 84.6479 47.4239 85.6855C47.4237 86.7232 46.6148 87.5642 45.6172 87.564L13.4181 87.5558C12.4206 87.5556 11.6121 86.7142 11.6123 85.6766C11.6125 84.6389 12.4214 83.798 13.419 83.7982L45.6181 83.8063Z" fill="#B80000"/>
<path d="M4.80507 76.7061C5.04632 75.7239 6.00581 75.1316 6.94815 75.383C7.8905 75.6344 8.45889 76.6345 8.21765 77.6167C8.0313 78.3754 8.01755 79.169 8.17752 79.9343C8.3375 80.6995 8.66678 81.4153 9.13909 82.0245C9.61141 82.6337 10.2137 83.1194 10.898 83.4431C11.5823 83.7667 12.3297 83.9193 13.0805 83.8886C14.0525 83.8489 14.8714 84.638 14.9095 85.6511C14.9475 86.6641 14.1904 87.5176 13.2184 87.5573C11.9193 87.6103 10.6263 87.3464 9.4424 86.7865C8.25849 86.2266 7.21641 85.3861 6.39925 84.3322C5.5821 83.2782 5.01244 82.0399 4.73566 80.716C4.45889 79.3919 4.48265 78.0188 4.80507 76.7061Z" fill="#B80000"/>
<path d="M6.466 32.4896C7.48817 32.4912 8.31556 33.3123 8.31395 34.3237L8.24588 77.2627C8.24428 78.2741 7.41435 79.0927 6.39218 79.0911C5.37002 79.0895 4.54272 78.2684 4.54431 77.257L4.6123 34.3179C4.61391 33.3066 5.44384 32.4881 6.466 32.4896Z" fill="#B80000"/>
<path d="M53.8425 12.8109C54.7822 12.4941 55.7924 13.0247 56.0989 13.9961L58.6443 22.0629C58.9508 23.0343 58.4374 24.0787 57.4977 24.3956C56.558 24.7124 55.5478 24.1818 55.2413 23.2103L52.696 15.1436C52.3895 14.1722 52.9028 13.1278 53.8425 12.8109Z" fill="#B80000"/>
<path d="M45.5942 1.42637C46.6049 1.42653 47.4241 2.26861 47.4239 3.30723C47.4238 4.34587 46.6044 5.18779 45.5937 5.18765L12.9709 5.18307C11.9602 5.18292 11.141 4.34084 11.1411 3.3022C11.1413 2.26357 11.9607 1.42174 12.9714 1.42188L45.5942 1.42637Z" fill="#B80000"/>
<path d="M4.42116 12.1675C4.68278 11.1963 5.64605 10.6313 6.57267 10.9055C7.49927 11.1797 8.03832 12.1892 7.77671 13.1603L4.19631 26.4511C3.93469 27.4223 2.97142 27.9873 2.04481 27.7131C1.1182 27.4389 0.579087 26.4294 0.840682 25.4583L4.42116 12.1675Z" fill="#B80000"/>
<path d="M0.694872 25.2852C0.998217 24.3356 2.03956 23.8038 3.0208 24.0974C4.00204 24.3909 4.55163 25.3987 4.2483 26.3484C3.87544 27.5157 3.96743 28.7758 4.50619 29.8808C5.04494 30.9858 5.99142 31.8556 7.15947 32.3193C8.10971 32.6965 8.56411 33.7477 8.17439 34.6673C7.78466 35.587 6.69842 36.0267 5.74817 35.6496C3.72064 34.8448 2.07768 33.3349 1.1425 31.4168C0.20733 29.4988 0.0476523 27.3115 0.694872 25.2852Z" fill="#B80000"/>
</svg>
