<svg width="79" height="94" viewBox="0 0 79 94" fill="none" xmlns="http://www.w3.org/2000/svg">
<g clip-path="url(#clip0_31_113)">
<path d="M39.5551 7.94337e-07C40.6973 0.00100919 41.6224 0.936197 41.6214 2.08884L41.6125 12.2985L56.4249 12.2984C58.6074 12.3038 60.3407 12.3828 61.5581 12.5579C61.6502 12.5711 61.7413 12.5906 61.8308 12.6162C62.9526 12.9373 64.2326 13.4715 65.1411 13.9694L65.2278 14.0175L65.2789 14.0471C65.3296 14.0774 65.379 14.1099 65.4269 14.1445C66.5049 14.9224 67.2776 15.6024 68.0749 16.4759L68.2349 16.6532L68.2721 16.6962C68.3088 16.7397 68.3436 16.7847 68.3766 16.8311C69.0734 17.8103 69.7065 18.9443 70.2346 20.2552L70.2854 20.3826L70.3068 20.4391C70.3273 20.4959 70.3454 20.5536 70.361 20.6121C70.7002 21.8852 70.8594 22.962 70.9044 24.1809C70.9053 24.2067 70.9057 24.2326 70.9057 24.2585V25.2815C71.2985 24.9979 71.7908 24.8512 72.3092 24.9022C73.472 25.0168 74.563 25.3155 75.6715 25.8794L75.7789 25.9349L75.8246 25.9595C75.9307 26.0185 76.0314 26.0868 76.1257 26.1637C77.0205 26.893 77.7603 27.7704 78.4139 28.9635C78.4716 29.0688 78.5202 29.1791 78.5591 29.2929C78.7654 29.8965 78.9176 30.5237 79.0191 31.1713L79.0386 31.3011L79.0482 31.3766C79.0564 31.4522 79.0606 31.5282 79.0607 31.6043L79.0617 43.3847C79.0617 43.4654 79.0572 43.546 79.0479 43.6261C78.9159 44.7707 78.5604 45.89 77.9563 47.0352C77.8932 47.1548 77.8187 47.2679 77.7339 47.3729C76.9979 48.2842 76.0545 49.0759 74.833 49.7796C74.7256 49.8415 74.6127 49.8936 74.496 49.9351C73.8966 50.1487 73.2229 50.3211 72.4917 50.4619C71.9088 50.5743 71.3363 50.4276 70.8907 50.102C70.8592 51.7373 70.7818 53.065 70.6485 54.054C70.6345 54.158 70.6126 54.2609 70.5833 54.3616C70.1976 55.6849 69.7448 56.7738 69.1744 57.7953C69.1404 57.8562 69.1034 57.9154 69.0635 57.9726C68.4109 58.9075 67.3668 60.0538 66.4541 60.8418C66.3993 60.8892 66.3419 60.9336 66.2823 60.9749C65.1606 61.7543 64.1217 62.309 62.9329 62.7763C62.8568 62.8062 62.7789 62.8316 62.6997 62.8522C61.4213 63.1857 60.3971 63.3309 59.1389 63.3641C59.121 63.3646 59.103 63.3648 59.0851 63.3648L54.4682 63.3654L54.4686 66.9758L62.125 66.9781L62.1673 66.9785C62.1814 66.9788 62.1954 66.9793 62.2095 66.9799C64.0095 67.0548 65.2376 67.2271 66.6682 67.6095L66.8073 67.6471L66.8682 67.6648C66.9288 67.6834 66.9885 67.7049 67.0471 67.7291C68.4605 68.3116 69.8784 69.1106 71.0818 69.9855L71.1976 70.0705L71.2486 70.1096C71.2991 70.1494 71.3478 70.1915 71.3944 70.2359C72.5938 71.3781 73.546 72.5267 74.3455 73.7422L74.4223 73.86L74.4516 73.9065C74.4802 73.9534 74.507 74.0014 74.5318 74.0504C75.1178 75.2053 75.6288 76.5387 75.9709 77.8844L76.0034 78.0147L76.0192 78.0838C76.0338 78.1532 76.0449 78.2233 76.0524 78.2938C76.1816 79.5033 76.2381 81.7441 76.2394 84.9074C76.2399 86.0601 75.3144 86.9949 74.1722 86.9954C73.03 86.9958 72.1037 86.0619 72.1032 84.9092C72.1019 81.8615 72.047 79.8836 71.9538 78.8812C71.7 77.896 71.3235 76.905 70.8977 76.0485C70.2985 75.1378 69.5804 74.2606 68.6494 73.3619C67.7454 72.7064 66.6664 72.0933 65.6014 71.6427C64.5243 71.3551 63.6058 71.2173 62.0759 71.1521L26.5373 71.1415C26.502 71.1433 26.4665 71.1443 26.4308 71.1443C26.3947 71.1443 26.3588 71.1433 26.3232 71.1415L21.5405 71.1401C18.1855 71.1462 16.1612 71.1898 15.3422 71.257C14.2781 71.489 13.2013 71.8446 11.9177 72.4558C10.9254 73.1113 10.0409 73.8497 9.21572 74.7193C8.37739 75.9191 7.81058 76.9926 7.34232 78.208C7.10807 79.203 6.9534 80.3639 6.91544 84.9259C6.90582 86.0785 5.97218 87.0049 4.83003 86.9953C3.68786 86.9856 2.76971 86.0434 2.7793 84.8908C2.81898 80.1221 2.97861 78.6302 3.35466 77.0887C3.3748 77.0062 3.39999 76.925 3.42994 76.8456C4.05343 75.1918 4.82269 73.7423 5.93206 72.1764L5.97345 72.12C6.01577 72.0644 6.06082 72.0108 6.1085 71.9597C7.22501 70.7627 8.43398 69.7539 9.78723 68.875L9.84216 68.8405C9.89755 68.807 9.9545 68.7761 10.0128 68.7479C11.6807 67.9414 13.1375 67.4559 14.6146 67.1458L14.6696 67.135C14.7246 67.125 14.7801 67.1172 14.8358 67.1118C15.8165 67.0156 18.0969 66.9722 21.5335 66.966L24.3611 66.9668L24.3598 63.3635C21.1872 63.3514 19.1819 63.3233 18.4089 63.2743C18.3089 63.2679 18.2095 63.2542 18.1114 63.2333C16.677 62.9276 15.6612 62.5761 14.6513 62.102C14.5846 62.0707 14.5195 62.0358 14.4565 61.9975C13.4215 61.3685 12.4252 60.6019 11.1462 59.3217C11.0811 59.2565 11.0203 59.1869 10.9643 59.1135C10.2149 58.1317 9.38151 56.6798 8.96143 55.6642C8.92953 55.5871 8.90224 55.5081 8.87973 55.4276C8.47224 53.9719 8.26521 52.5488 8.19391 50.7161C8.19285 50.6888 8.19233 50.6616 8.19233 50.6343L8.19223 50.0982C7.74927 50.4268 7.17838 50.5777 6.59495 50.4699C5.87633 50.3372 5.17975 50.1497 4.50727 49.9057C4.40992 49.8704 4.31527 49.8277 4.22423 49.7781C3.2559 49.2504 2.25242 48.4815 1.35649 47.4446C1.2634 47.3369 1.18155 47.2198 1.11217 47.0952C0.536375 46.0609 0.15685 44.9635 -0.00447544 43.8182C-0.0182131 43.7206 -0.0250623 43.6222 -0.0250243 43.5237L-0.0205786 31.9644L-0.0198871 31.9121C-0.0185672 31.8598 -0.0153182 31.8075 -0.0101066 31.7555C0.0717758 30.9374 0.228963 30.1548 0.47368 29.4176L0.490672 29.3687C0.531516 29.2551 0.582013 29.1453 0.641726 29.0404C1.26839 27.9403 2.05778 27.007 2.87779 26.3316C2.97181 26.2541 3.07242 26.1852 3.17842 26.1256C4.33571 25.4745 5.46737 25.1179 6.64524 24.9338C7.22692 24.8429 7.78948 25.0062 8.22206 25.3416C8.25019 23.9985 8.29784 22.9476 8.36778 22.2051L8.37608 22.1306C8.38577 22.0562 8.39941 21.9824 8.41698 21.9094C8.75921 20.4894 9.11765 19.4948 9.81401 18.1029L9.84374 18.0457C9.87434 17.989 9.90753 17.9336 9.94323 17.88C10.5827 16.9191 11.3819 15.9655 12.2952 15.098L12.3398 15.0568C12.3851 15.0163 12.432 14.9777 12.4806 14.9413C13.4619 14.2068 14.9087 13.4007 16.0872 12.9274C16.1671 12.8953 16.2488 12.8683 16.332 12.8465C17.621 12.5086 19.0882 12.3243 20.5176 12.299L20.5537 12.2987L37.4763 12.2985L37.4852 2.08526C37.4862 0.932602 38.4129 -0.000994045 39.5551 7.94337e-07ZM28.496 63.3692L28.4974 66.968L50.3322 66.9745L50.3318 63.366L28.496 63.3692ZM20.5741 16.4728C19.481 16.4933 18.3999 16.6307 17.4985 16.8543C16.6931 17.1923 15.6941 17.7518 15.0408 18.2234C14.4186 18.8262 13.8784 19.4718 13.4479 20.1022C12.9579 21.0949 12.7169 21.7626 12.4725 22.7478C12.3849 23.7939 12.333 25.6476 12.3275 28.3727L12.3285 50.5905C12.3884 52.0799 12.547 53.1348 12.8252 54.1654C13.1071 54.8069 13.6696 55.7908 14.1624 56.4608C15.1386 57.4268 15.8341 57.9526 16.4967 58.3639C17.1369 58.6572 17.8033 58.8922 18.8154 59.1162C19.7444 59.1611 22.307 59.1894 26.602 59.1953L59.0526 59.1906C59.9406 59.166 60.6297 59.0732 61.5452 58.8412C62.3487 58.517 63.054 58.1411 63.8459 57.599C64.4692 57.0467 65.1902 56.2506 65.6222 55.6524C65.9811 54.9946 66.2883 54.2691 66.5694 53.3367C66.6896 52.3491 66.7624 50.8104 66.7706 48.6654L66.7695 24.3037C66.7363 23.4564 66.6325 22.7235 66.3967 21.8117C66.0093 20.8535 65.5592 20.0439 65.081 19.3574C64.4972 18.7115 63.9535 18.2208 63.1204 17.6124C62.5224 17.2901 61.6229 16.9097 60.8364 16.6717C59.9062 16.5505 58.4515 16.4775 56.4149 16.4725L20.5741 16.4728ZM53.8517 48.9282C54.9939 48.9215 55.9252 49.8506 55.9318 51.0032C55.9384 52.1558 55.0179 53.0956 53.8757 53.1023L49.8287 53.1259C48.6865 53.1326 47.7552 52.2036 47.7486 51.0509C47.742 49.8983 48.6625 48.9585 49.8047 48.9518L53.8517 48.9282ZM29.11 48.9319C30.2522 48.9303 31.1795 49.8633 31.1811 51.016C31.1827 52.1686 30.2581 53.1044 29.1159 53.106L24.8795 53.112C23.7374 53.1136 22.8101 52.1806 22.8085 51.0279C22.8069 49.8753 23.7315 48.9395 24.8737 48.9379L29.11 48.9319ZM41.7077 48.9364C42.8499 48.9377 43.7749 49.8732 43.7736 51.0258C43.7723 52.1785 42.8453 53.1119 41.7031 53.1106L37.4669 53.1058C36.3247 53.1045 35.3998 52.1691 35.401 51.0165C35.4023 49.8638 36.3292 48.9304 37.4714 48.9317L41.7077 48.9364ZM8.19114 28.6749C7.93061 28.8696 7.62089 29.0053 7.2783 29.0589C6.59467 29.1657 5.98602 29.352 5.36054 29.6802C5.02731 29.9808 4.66089 30.4078 4.33528 30.9389C4.23842 31.2733 4.16316 31.6511 4.11556 32.0772L4.11122 43.3622C4.19529 43.8589 4.36042 44.3589 4.61851 44.8632C5.09138 45.3762 5.59306 45.7601 6.05851 46.031C6.46407 46.1695 6.89065 46.281 7.33965 46.3639C7.65878 46.4229 7.9472 46.553 8.19203 46.7348L8.19114 28.6749ZM70.9067 46.7096C71.1414 46.5413 71.4148 46.42 71.716 46.3619C72.2143 46.2659 72.6214 46.1622 72.9474 46.057C73.6113 45.6563 74.0667 45.2647 74.4012 44.885C74.7005 44.2774 74.8565 43.7468 74.9255 43.2521L74.9243 31.7666C74.8693 31.4317 74.7952 31.1179 74.7039 30.8235C74.3736 30.2533 74.0453 29.8648 73.684 29.5447C73.1018 29.2657 72.5433 29.1192 71.9074 29.0566C71.5328 29.0197 71.1913 28.8842 70.9058 28.6779L70.9067 46.7096ZM57.3538 33.0763C57.3538 30.9346 55.5796 29.1165 53.2899 29.1165C51.0001 29.1165 49.2258 30.9346 49.2258 33.0763C49.2258 35.2181 51.0001 37.0362 53.2899 37.0362C55.5796 37.0362 57.3538 35.2181 57.3538 33.0763ZM29.8294 33.0745C29.8294 30.9378 28.0594 29.1238 25.7747 29.1238C23.49 29.1238 21.72 30.9378 21.72 33.0745C21.72 35.2111 23.49 37.0251 25.7747 37.0251C28.0594 37.0251 29.8294 35.2111 29.8294 33.0745ZM61.4901 33.0763C61.4901 37.6138 57.7734 41.2103 53.2899 41.2103C48.8063 41.2103 45.0895 37.6138 45.0895 33.0763C45.0895 28.5389 48.8063 24.9424 53.2899 24.9424C57.7734 24.9424 61.4901 28.5389 61.4901 33.0763ZM33.9658 33.0745C33.9658 37.6069 30.2532 41.1992 25.7747 41.1992C21.2963 41.1992 17.5837 37.6069 17.5837 33.0745C17.5837 28.542 21.2962 24.9496 25.7747 24.9496C30.2532 24.9496 33.9658 28.542 33.9658 33.0745Z" fill="#B80000"/>
</g>
<defs>
<clipPath id="clip0_31_113">
<rect width="79" height="94" fill="white"/>
</clipPath>
</defs>
</svg>
