<svg width="30" height="23" viewBox="0 0 30 23" fill="none" xmlns="http://www.w3.org/2000/svg">
<path d="M5.625 21.375V7.625M24.375 21.375V7.625" stroke="black" stroke-linejoin="round"/>
<path d="M1.875 20.125V3.875C1.875 3.54348 2.0067 3.22554 2.24112 2.99112C2.47554 2.7567 2.79348 2.625 3.125 2.625H26.875C27.2065 2.625 27.5245 2.7567 27.7589 2.99112C27.9933 3.22554 28.125 3.54348 28.125 3.875V20.125C28.125 20.4565 27.9933 20.7745 27.7589 21.0089C27.5245 21.2433 27.2065 21.375 26.875 21.375H3.125C2.79348 21.375 2.47554 21.2433 2.24112 21.0089C2.0067 20.7745 1.875 20.4565 1.875 20.125Z" stroke="black"/>
<path d="M1.875 4.8L15 14.5L28.125 4.8" stroke="black" stroke-linejoin="round"/>
<path d="M6.34619 2.625L14.9999 8.875L23.6537 2.625" stroke="black" stroke-linejoin="round"/>
</svg>
