<svg width="25" height="25" viewBox="0 0 25 25" fill="none" xmlns="http://www.w3.org/2000/svg">
<path d="M5.35845 11.9167C5.30911 11.936 5.26669 11.9696 5.23661 12.0132C5.20654 12.0569 5.1902 12.1085 5.1897 12.1615C5.1897 12.2677 5.25949 12.3677 5.35845 12.4052L8.46991 13.5406L14.8803 10.2313C14.9142 10.2155 14.9525 10.2121 14.9887 10.2216C15.0248 10.2311 15.0565 10.253 15.0782 10.2833C15.0986 10.3146 15.1075 10.3519 15.1033 10.389C15.0991 10.4261 15.0822 10.4606 15.0553 10.4865L10.4543 14.5427L15.5751 18.249C15.6449 18.299 15.7387 18.3115 15.8189 18.2823C15.859 18.2673 15.8949 18.2426 15.9232 18.2105C15.9516 18.1783 15.9715 18.1397 15.9814 18.0979L18.5418 7.32917C18.5528 7.28311 18.5511 7.2349 18.5368 7.18975C18.5225 7.1446 18.4961 7.1042 18.4605 7.07292C18.425 7.04162 18.3815 7.02062 18.3349 7.01217C18.2883 7.00373 18.2402 7.00816 18.1959 7.025L5.35845 11.9167Z" stroke="black" stroke-linecap="round" stroke-linejoin="round"/>
<path d="M8.46973 13.5417L9.27077 17.6219C9.29577 17.7385 9.40619 17.8281 9.52494 17.8281C9.58438 17.8271 9.64178 17.8063 9.68802 17.7689C9.73426 17.7315 9.76668 17.6798 9.78014 17.6219L10.4499 14.5427M12.3989 15.9542L9.69056 17.775" stroke="black" stroke-linecap="round" stroke-linejoin="round"/>
<path d="M1.5625 12.5C1.5625 15.4008 2.71484 18.1828 4.76602 20.234C6.8172 22.2852 9.59919 23.4375 12.5 23.4375C15.4008 23.4375 18.1828 22.2852 20.234 20.234C22.2852 18.1828 23.4375 15.4008 23.4375 12.5C23.4375 9.59919 22.2852 6.8172 20.234 4.76602C18.1828 2.71484 15.4008 1.5625 12.5 1.5625C9.59919 1.5625 6.8172 2.71484 4.76602 4.76602C2.71484 6.8172 1.5625 9.59919 1.5625 12.5Z" stroke="black" stroke-linejoin="round"/>
</svg>
