<svg width="88" height="88" viewBox="0 0 88 88" fill="none" xmlns="http://www.w3.org/2000/svg">
<path d="M39.95 70.5727C40.9732 70.3848 41.9465 71.1106 42.1239 72.1938C42.3014 73.277 41.6158 74.3074 40.5927 74.4953C40.1198 74.5821 39.3561 74.6285 38.4301 74.6592C37.4591 74.6913 36.1826 74.7089 34.6071 74.7123C33.5686 74.7146 32.7251 73.8252 32.7229 72.7259C32.7207 71.6265 33.5608 70.7334 34.5992 70.7311C36.1585 70.7277 37.394 70.7104 38.3125 70.68C39.2758 70.6481 39.7788 70.6041 39.95 70.5727Z" fill="#B80000"/>
<path d="M11.6607 66.3739C12.7267 66.3688 13.595 67.2268 13.6002 68.2904C13.6036 69.0054 13.6246 69.479 13.6508 69.7572C13.7609 70.0592 13.9048 70.3141 14.0773 70.5333C14.3448 70.6803 14.7411 70.8219 15.1502 70.8794C16.2058 71.0277 16.941 72.0017 16.7924 73.055C16.6437 74.1081 15.6674 74.8417 14.6118 74.6934C13.6168 74.5535 12.5232 74.1724 11.6797 73.5727C11.5721 73.4962 11.4726 73.4089 11.3829 73.3122C10.7126 72.5893 10.219 71.7296 9.91403 70.7522C9.88321 70.6534 9.86044 70.5522 9.8459 70.4498C9.77209 69.9297 9.74403 69.1887 9.73977 68.309C9.73463 67.2454 10.5946 66.3791 11.6607 66.3739Z" fill="#B80000"/>
<path d="M16.577 28.2558C17.649 28.2245 18.5451 29.0129 18.5785 30.0168C18.6118 31.0206 17.7699 31.8598 16.6979 31.8911L14.7476 31.9479C14.5316 32.0121 14.3094 32.1145 13.9457 32.3631C13.793 32.5888 13.6899 32.8362 13.5895 33.3287C13.3883 34.3153 12.3713 34.9623 11.3178 34.774C10.2644 34.5856 9.57341 33.6331 9.77456 32.6466C10.0007 31.5375 10.348 30.7828 10.9754 29.9965L11.0151 29.9484C11.1098 29.8376 11.2183 29.7374 11.3381 29.6501C12.2561 28.9808 13.0013 28.601 13.9895 28.3718C14.1226 28.341 14.2589 28.3234 14.3959 28.3194L16.577 28.2558Z" fill="#B80000"/>
<path d="M37.4621 29.8461C37.6304 28.8153 38.6176 28.1137 39.6671 28.279C40.9475 28.4807 41.9094 28.8407 42.9391 29.6435L43.0389 29.7226L43.095 29.7695C43.2236 29.8812 43.3365 30.0093 43.4305 30.1506C44.0713 31.1127 44.3349 31.8099 44.4672 32.7484C44.4788 32.8307 44.4849 32.9137 44.4854 32.9968L44.5092 37.0746C44.5153 38.1186 43.6587 38.9698 42.5958 38.9758C41.5329 38.9818 40.6663 38.1403 40.6602 37.0963L40.637 33.1507C40.6027 32.9419 40.5527 32.777 40.3717 32.4754C40.0144 32.227 39.6856 32.1108 39.0576 32.0119C38.0081 31.8466 37.2938 30.8769 37.4621 29.8461Z" fill="#B80000"/>
<path d="M40.859 69.5497C41.0708 68.6027 42.0505 67.9981 43.0472 68.1993C44.0439 68.4005 44.6802 69.3314 44.4685 70.2784C44.2264 71.3608 43.7842 72.2475 43.0603 73.0359C42.9918 73.1105 42.9168 73.1796 42.836 73.2421L42.2164 73.7222C41.4267 74.3341 40.2646 74.2218 39.6206 73.4716C38.9766 72.7212 39.0947 71.6169 39.8843 71.005L40.3661 70.6317C40.5868 70.3649 40.7468 70.0516 40.859 69.5497Z" fill="#B80000"/>
<path d="M2.0414 77.0999C3.06943 77.0231 3.96368 77.8137 4.03871 78.8658C4.12487 80.074 4.38792 80.9318 4.71352 81.5438C4.92667 81.784 5.2602 82.0911 5.86485 82.4824C6.54543 82.6978 7.28038 82.7949 9.06183 82.8045C10.0926 82.8101 10.9238 83.6697 10.9184 84.7245C10.9129 85.7793 10.0729 86.63 9.04212 86.6244C6.96951 86.6132 5.78896 86.496 4.46942 86.0344C4.34242 85.99 4.22045 85.9317 4.10567 85.8605C2.99122 85.1692 2.28033 84.529 1.74773 83.8735C1.68501 83.7963 1.62835 83.7142 1.57824 83.6279C0.865117 82.3996 0.441399 80.9047 0.315824 79.1439C0.2408 78.0918 1.01337 77.1767 2.0414 77.0999Z" fill="#B80000"/>
<path d="M85.6786 18.1296C86.7004 18.1296 87.5287 18.928 87.5288 19.913C87.5289 20.898 86.7007 21.6966 85.6789 21.6966L2.161 21.7033C1.13925 21.7034 0.310881 20.905 0.310791 19.92C0.310707 18.9349 1.1389 18.1364 2.16065 18.1363L85.6786 18.1296Z" fill="#B80000"/>
<path d="M2.08964 19.3208C3.06038 19.3212 3.84702 20.1593 3.84666 21.1927L3.82617 79.3935C3.82581 80.4269 3.03857 81.2644 2.06781 81.264C1.09706 81.2636 0.310428 80.4255 0.310791 79.3921L0.331194 21.1913C0.331565 20.1578 1.11889 19.3204 2.08964 19.3208Z" fill="#B80000"/>
<path d="M15.5887 9.82486C16.5982 9.83333 17.4095 10.6326 17.4007 11.6101C17.392 12.5876 16.5665 13.3732 15.557 13.3647L11.5519 13.3312C10.5424 13.3227 9.73109 12.5234 9.73982 11.5459C9.74856 10.5684 10.574 9.78275 11.5836 9.79121L15.5887 9.82486Z" fill="#B80000"/>
<path d="M27.3112 9.79114C28.3463 9.79036 29.1861 10.5891 29.1869 11.5751C29.1877 12.5611 28.3493 13.361 27.3142 13.3618L23.4015 13.3648C22.3664 13.3655 21.5267 12.5668 21.5259 11.5808C21.5251 10.5948 22.3635 9.79481 23.3986 9.79404L27.3112 9.79114Z" fill="#B80000"/>
<path d="M40.3713 70.6286C41.3447 70.3092 42.3707 70.9126 42.6629 71.9765C42.9552 73.0404 42.403 74.1618 41.4296 74.4812L40.9858 74.6269C40.0124 74.9463 38.9864 74.3427 38.6942 73.2788C38.4019 72.215 38.9541 71.0935 39.9275 70.7741L40.3713 70.6286Z" fill="#B80000"/>
<path d="M75.0743 37.7847C76.094 37.7843 76.9209 38.5821 76.9213 39.5666C76.9217 40.5512 76.0953 41.3496 75.0756 41.35L51.66 41.3583C50.6403 41.3587 49.8134 40.5608 49.813 39.5763C49.8126 38.5917 50.6389 37.7933 51.6586 37.7929L75.0743 37.7847Z" fill="#B80000"/>
<path d="M75.0498 47.9125C76.0835 47.9126 76.9214 48.7121 76.9213 49.6983C76.9212 50.6844 76.0831 51.4838 75.0494 51.4837L51.6845 51.4812C50.6508 51.4811 49.8129 50.6816 49.813 49.6955C49.8131 48.7093 50.6511 47.9099 51.6848 47.91L75.0498 47.9125Z" fill="#B80000"/>
<path d="M80.3652 83.0509C81.3924 83.0509 82.225 83.8504 82.225 84.8367C82.2251 85.8231 81.3925 86.6227 80.3653 86.6228L8.6531 86.6246C7.62595 86.6246 6.79324 85.825 6.79321 84.8386C6.79319 83.8523 7.62579 83.0527 8.65292 83.0526L80.3652 83.0509Z" fill="#B80000"/>
<path d="M84.9224 75.9725C85.9382 75.6922 86.9879 76.2921 87.267 77.3126C87.5717 78.4266 87.6111 79.5971 87.382 80.7293C87.1529 81.8615 86.6617 82.9236 85.9482 83.8298C85.2348 84.7359 84.3191 85.4607 83.2752 85.9454C82.2313 86.4301 81.0884 86.6611 79.9391 86.6198C78.8864 86.582 78.0634 85.6939 78.1011 84.6363C78.1388 83.5787 79.0227 82.752 80.0754 82.7899C80.6264 82.8097 81.1743 82.6989 81.6748 82.4666C82.1753 82.2342 82.6143 81.8867 82.9564 81.4523C83.2984 81.0179 83.5338 80.5086 83.6436 79.9659C83.7535 79.4231 83.7346 78.862 83.5885 78.3279C83.3095 77.3074 83.9067 76.2529 84.9224 75.9725Z" fill="#B80000"/>
<path d="M83.9937 8.08839C83.9937 7.05506 84.7851 6.2174 85.7613 6.21741C86.7374 6.21744 87.5288 7.05508 87.5288 8.08839L87.5279 78.2018C87.5279 79.2351 86.7366 80.0728 85.7604 80.0728C84.7842 80.0728 83.9929 79.2351 83.9929 78.2017L83.9937 8.08839Z" fill="#B80000"/>
<path d="M78.2628 0.575682C79.3613 0.235853 80.5232 0.170461 81.6514 0.384916C82.7797 0.599374 83.8414 1.0875 84.7478 1.80846C85.6543 2.52941 86.3792 3.46221 86.8619 4.52894C87.3445 5.59569 87.571 6.76542 87.5223 7.94019C87.478 9.00676 86.5984 9.83462 85.5575 9.78931C84.5167 9.74398 83.7087 8.84261 83.7529 7.77602C83.7761 7.21782 83.6685 6.66204 83.4392 6.15516C83.2098 5.64828 82.8654 5.20503 82.4347 4.86246C82.004 4.51989 81.4995 4.28791 80.9634 4.18601C80.4273 4.0841 79.8751 4.1152 79.3532 4.27668C78.3558 4.5852 77.3033 4.00687 77.0021 2.9849C76.701 1.96291 77.2655 0.884227 78.2628 0.575682Z" fill="#B80000"/>
<path d="M35.0067 71.1503C36.0242 71.1509 36.8487 71.9488 36.8481 72.9324C36.8475 73.916 36.022 74.7129 35.0045 74.7123L15.117 74.7006C14.0994 74.7 13.275 73.9021 13.2756 72.9185C13.2763 71.9349 14.1017 71.1381 15.1193 71.1387L35.0067 71.1503Z" fill="#B80000"/>
<path d="M78.616 0.263144C79.6328 0.263171 80.4571 1.19613 80.457 2.34693C80.457 3.49773 79.6327 4.43064 78.6159 4.43061L7.45558 4.42872C6.43878 4.42869 5.6145 3.49582 5.6145 2.34504C5.61453 1.19425 6.43879 0.261352 7.45558 0.261353L78.616 0.263144Z" fill="#B80000"/>
<path d="M4.415 0.782449C5.39086 0.360427 6.44826 0.190867 7.49888 0.287948C8.49433 0.379942 9.23062 1.30608 9.14345 2.35652C9.05628 3.40696 8.17861 4.18391 7.18315 4.09192C6.7076 4.04799 6.22895 4.1248 5.78723 4.31583C5.34552 4.50686 4.95351 4.80662 4.64395 5.19009C4.33439 5.57358 4.11623 6.02963 4.00774 6.5202C3.89926 7.01077 3.90354 7.52162 4.02028 8.01008C4.26463 9.03253 3.67729 10.0704 2.70837 10.3283C1.73943 10.5861 0.755862 9.96626 0.51151 8.94382C0.25362 7.86472 0.244095 6.73616 0.483766 5.6524C0.723436 4.56865 1.20532 3.56112 1.88919 2.71394C2.57307 1.86675 3.43913 1.20447 4.415 0.782449Z" fill="#B80000"/>
<path d="M11.8061 31.2329C12.9434 31.2331 13.8651 32.078 13.8649 33.12L13.8582 68.6566C13.858 69.6986 12.9359 70.5432 11.7986 70.543C10.6613 70.5428 9.73957 69.698 9.73975 68.656L9.74644 33.1193C9.74665 32.0773 10.6688 31.2327 11.8061 31.2329Z" fill="#B80000"/>
<path d="M2.07535 6.81299C3.05031 6.81254 3.84099 7.65266 3.84143 8.68945L3.84666 21.0163C3.84709 22.0531 3.05706 22.8939 2.0821 22.8944C1.10714 22.8949 0.316393 22.0548 0.315935 21.018L0.310791 8.69106C0.310372 7.65428 1.10039 6.81345 2.07535 6.81299Z" fill="#B80000"/>
<path d="M39.6767 28.2632C40.7187 28.2636 41.5631 29.0621 41.5627 30.0466C41.5622 31.0311 40.7172 31.8289 39.6752 31.8285L16.3403 31.8201C15.2983 31.8197 14.4539 31.0213 14.4543 30.0368C14.4547 29.0523 15.2998 28.2545 16.3418 28.2549L39.6767 28.2632Z" fill="#B80000"/>
<path d="M42.4578 35.4022C43.5914 35.4028 44.5098 36.236 44.5092 37.2632L44.4891 69.8753C44.4885 70.9026 43.569 71.7349 42.4354 71.7343C41.3018 71.7337 40.3834 70.9005 40.384 69.8733L40.404 37.2611C40.4047 36.2339 41.3242 35.4017 42.4578 35.4022Z" fill="#B80000"/>
</svg>
