<svg width="22" height="22" viewBox="0 0 22 22" fill="none" xmlns="http://www.w3.org/2000/svg">
<path d="M16 15.5C14.26 17.24 10.251 15.757 8.24697 13.753C6.24297 11.749 4.75997 7.74 6.49997 6C7.00397 5.496 7.69797 5.436 8.12197 5.456C8.36697 5.467 8.57897 5.611 8.72197 5.811L9.67397 7.145C9.81142 7.33763 9.8761 7.57277 9.85651 7.8086C9.83692 8.04444 9.73433 8.26568 9.56697 8.433L8.66597 9.334C8.83197 9.834 9.36597 11.034 10.166 11.834C10.966 12.634 12.166 13.168 12.666 13.334L13.567 12.434C13.7342 12.2665 13.9553 12.1637 14.1912 12.1439C14.427 12.1242 14.6622 12.1887 14.855 12.326L16.189 13.278C16.389 13.421 16.533 13.633 16.544 13.878C16.564 14.302 16.504 14.996 16 15.5Z" stroke="black" stroke-linejoin="round"/>
<path d="M11 21.5C16.799 21.5 21.5 16.799 21.5 11C21.5 5.201 16.799 0.5 11 0.5C5.201 0.5 0.5 5.201 0.5 11C0.5 12.912 1.011 14.706 1.905 16.25L1.025 20.975L5.75 20.095C7.34546 21.0182 9.15671 21.5029 11 21.5Z" stroke="black" stroke-linejoin="round"/>
</svg>
